<?xml version="1.0" encoding="utf-8"?>
<?xml-stylesheet type="text/xsl" href="rss1.xsl"?>
<rss version="2.0" xmlns:atom="http://www.w3.org/2005/Atom" xmlns:content="http://purl.org/rss/1.0/modules/content/" xmlns:dc="http://purl.org/dc/elements/1.1/" xmlns:media="http://search.yahoo.com/mrss/">
<channel>
 <title>Getty</title>
 <link>http://www.gettyimg.com/</link>
 <atom:link href="http://www.gettyimg.com/" rel="self" type="application/rss+xml" />

 
                <item>
                <title><![CDATA[【HD Live Performances】WEB-DL - Ed Sheeran - Live @ Hurricane Festival 2024 WEB-DL H264 1080p AAC2.0-ilya2129]]></title>
                <link><![CDATA[https://sharemania.us/threads/ed-sheeran-live-hurricane-festival-2024-web-dl-h264-1080p-aac2-0-ilya2129.247609/]]></link>
                <description><![CDATA[<article>
<blockquote class="messageText SelectQuoteContainer ugc baseHtml">
<div style="text-align: center"><img src="https://i123.fastpic.org/big/2024/0622/74/a9f6ecd03e892f5d9a7b2393988ccb74.png?r=1" class="bbCodeImage LbImage" alt="[​IMG]" data-url="https://i123.fastpic.org/big/2024/0622/74/a9f6ecd03e892f5d9a7b2393988ccb74.png?r=1" style=""><br>
<br>
<a href="https://fastpic.org/view/123/2024/0622/_160fae4f1e6d10d0a272cf517866dcf5.png.html" target="_blank" class="externalLink" rel="nofollow"><img src="https://i123.fastpic.org/thumb/2024/0622/f5/_160fae4f1e6d10d0a272cf517866dcf5.jpeg" class="bbCodeImage LbImage" alt="[​IMG]" data-url="https://i123.fastpic.org/thumb/2024/0622/f5/_160fae4f1e6d10d0a272cf517866dcf5.jpeg"></a> <a href="https://fastpic.org/view/123/2024/0622/_4f614aae72525801509cf893d76fcd91.png.html" target="_blank" class="externalLink" rel="nofollow"><img src="https://i123.fastpic.org/thumb/2024/0622/91/_4f614aae72525801509cf893d76fcd91.jpeg" class="bbCodeImage LbImage" alt="[​IMG]" data-url="https://i123.fastpic.org/thumb/2024/0622/91/_4f614aae72525801509cf893d76fcd91.jpeg"></a> <a href="https://fastpic.org/view/123/2024/0622/_e07c6881e4ccb14a9e233431bb0e25ad.png.html" target="_blank" class="externalLink" rel="nofollow"><img src="https://i123.fastpic.org/thumb/2024/0622/ad/_e07c6881e4ccb14a9e233431bb0e25ad.jpeg" class="bbCodeImage LbImage" alt="[​IMG]" data-url="https://i123.fastpic.org/thumb/2024/0622/ad/_e07c6881e4ccb14a9e233431bb0e25ad.jpeg"></a> <a href="https://fastpic.org/view/123/2024/0622/_9803eb3af58e30d68ca4c400172985c0.png.html" target="_blank" class="externalLink" rel="nofollow"><img src="https://i123.fastpic.org/thumb/2024/0622/c0/_9803eb3af58e30d68ca4c400172985c0.jpeg" class="bbCodeImage LbImage" alt="[​IMG]" data-url="https://i123.fastpic.org/thumb/2024/0622/c0/_9803eb3af58e30d68ca4c400172985c0.jpeg"></a> <a href="https://fastpic.org/view/123/2024/0622/_f589349753a1dd39ff8a98ce4283eebf.png.html" target="_blank" class="externalLink" rel="nofollow"><img src="https://i123.fastpic.org/thumb/2024/0622/bf/_f589349753a1dd39ff8a98ce4283eebf.jpeg" class="bbCodeImage LbImage" alt="[​IMG]" data-url="https://i123.fastpic.org/thumb/2024/0622/bf/_f589349753a1dd39ff8a98ce4283eebf.jpeg"></a> <a href="https://fastpic.org/view/123/2024/0622/_18e00b97282c4ffa269cd3ab99f524da.png.html" target="_blank" class="externalLink" rel="nofollow"><img src="https://i123.fastpic.org/thumb/2024/0622/da/_18e00b97282c4ffa269cd3ab99f524da.jpeg" class="bbCodeImage LbImage" alt="[​IMG]" data-url="https://i123.fastpic.org/thumb/2024/0622/da/_18e00b97282c4ffa269cd3ab99f524da.jpeg"></a><br>
<br>
​</div><br>
<div class="bbCodeBlock bbCodeCode">
<div class="type">Code:</div>
<pre>General
ID                                       : 1 (0x1)
Complete name                            : C:\Recordings\Ed Sheeran - Live @ Hurricane Festival 2024 WEB-DL H264 1080p AAC2.0-ilya2129.ts
Format                                   : MPEG-TS
File size                                : 5.48 GiB
Duration                                 : 1 h 33 min
Overall bit rate mode                    : Variable
Overall bit rate                         : 8 341 kb/s
Frame rate                               : 50.000 FPS

Video
ID                                       : 302 (0x12E)
Menu ID                                  : 1 (0x1)
Format                                   : AVC
Format/Info                              : Advanced Video Codec
Format profile                           : High@L4.2
Format settings                          : CABAC / 4 Ref Frames
Format settings, CABAC                   : Yes
Format settings, Reference frames        : 4 frames
Format settings, Slice count             : 2 slices per frame
Codec ID                                 : 27
Duration                                 : 1 h 33 min
Bit rate mode                            : Constant
Nominal bit rate                         : 7 800 kb/s
Width                                    : 1 920 pixels
Height                                   : 1 080 pixels
Display aspect ratio                     : 16:9
Frame rate                               : 50.000 FPS
Color space                              : YUV
Chroma subsampling                       : 4:2:0
Bit depth                                : 8 bits
Scan type                                : Progressive
Bits/(Pixel*Frame)                       : 0.075
Color range                              : Limited
Color primaries                          : BT.709
Transfer characteristics                 : BT.709
Matrix coefficients                      : BT.709

Audio #1
ID                                       : 303 (0x12F)
Menu ID                                  : 1 (0x1)
Format                                   : AAC LC
Format/Info                              : Advanced Audio Codec Low Complexity
Format version                           : Version 4
Muxing mode                              : ADTS
Codec ID                                 : 15-2
Duration                                 : 1 h 33 min
Bit rate mode                            : Variable
Channel(s)                               : 2 channels
Channel layout                           : L R
Sampling rate                            : 48.0 kHz
Frame rate                               : 46.875 FPS (1024 SPF)
Compression mode                         : Lossy
Language                                 : German

Audio #2
ID                                       : 304 (0x130)
Menu ID                                  : 1 (0x1)
Format                                   : AAC LC
Format/Info                              : Advanced Audio Codec Low Complexity
Format version                           : Version 4
Muxing mode                              : ADTS
Codec ID                                 : 15-2
Duration                                 : 1 h 33 min
Bit rate mode                            : Variable
Channel(s)                               : 2 channels
Channel layout                           : L R
Sampling rate                            : 48.0 kHz
Frame rate                               : 46.875 FPS (1024 SPF)
Compression mode                         : Lossy
Language                                 : Multiple languages



</pre>
</div><div style="text-align: center"><br>
<div class="bbCodeBlock bbCodeVfcHH HiddenContent">
<div class="attribution type">Hidden Content:</div>
<blockquote>You must reply before you can see the hidden data contained here.</blockquote>
</div></div>
<div class="messageTextEndMarker">&nbsp;</div>
</blockquote>
</article>]]></description>
                <author><![CDATA[ilya2129]]></author>
                </item>

                
                <item>
                <title><![CDATA[【Albums (lossy)】Dolby Atmos - Red Velvet - Chill Kill - The 3rd Album [E-AC3-JOC | 16bits/48kHz | DD+ w/DA| 768kbits]]]></title>
                <link><![CDATA[https://sharemania.us/threads/red-velvet-chill-kill-the-3rd-album-e-ac3-joc-16bits-48khz-dd-w-da-768kbits.247610/]]></link>
                <description><![CDATA[<article>
<blockquote class="messageText SelectQuoteContainer ugc baseHtml">
<img src="https://a5.mzstatic.com/us/r1000/0/Music126/v4/20/0d/73/200d7369-8e85-be51-c201-4c5ae2a9e5bb/23UM1IM48362.rgb.jpg" class="bbCodeImage LbImage" alt="[​IMG]" data-url="https://a5.mzstatic.com/us/r1000/0/Music126/v4/20/0d/73/200d7369-8e85-be51-c201-4c5ae2a9e5bb/23UM1IM48362.rgb.jpg" style=""> <br>
<div style="text-align: center"><img src="https://bendodson.s3-eu-west-1.amazonaws.com/apple-music/dolby-atmos.png" class="bbCodeImage LbImage" alt="[​IMG]" data-url="https://bendodson.s3-eu-west-1.amazonaws.com/apple-music/dolby-atmos.png" style="">​</div><img src="https://i.imgur.com/PJMTrij.jpeg" class="bbCodeImage LbImage" alt="[​IMG]" data-url="https://i.imgur.com/PJMTrij.jpeg" style=""> <br>
<div style="text-align: center"><span style="font-size: 18px"><b>Artist:</b> Red Velvet<br>
<b>Album: </b>Chill Kill - The 3rd Album<br>
<b>Year:</b> 2023<br>
<b>Source: <span style="color: rgb(255, 0, 0)"><span style="text-decoration: underline">Apple Music</span></span></b><br>
<b><b>Genre:</b> </b>K-Pop<br>
<b>Label: </b>SM Entertainment<br>
<b>Format</b>: .m4a Enhanced AC-3 with Joint Object Coding | Dolby Digital Plus with Dolby Atmos<br>
<b>Bitrate:</b> 768kb/s | 48kHz</span>​</div><img src="https://i.imgur.com/PJMTrij.jpeg" class="bbCodeImage LbImage" alt="[​IMG]" data-url="https://i.imgur.com/PJMTrij.jpeg" style=""> <br>
<div style="text-align: center"><b><span style="text-decoration: underline"><span style="font-size: 18px">TRACKLIST:</span></span></b><br>
<i>01. Chill Kill | 3 min 34 sec<br>
02. Knock Knock (Who's There) | 3 min 21 sec<br>
03. Underwater | 3 min 25 sec<br>
04. Will I Ever See You Again | 3 min 11 sec<br>
05. Nightmare | 3 min 25 sec<br>
06. Iced Coffee | 3 min 18 sec<br>
07. One Kiss | 3 min 19 sec<br>
08. Bulldozer | 2 min 40 sec<br>
09. Wings | 3 min 43 sec<br>
10. Scenery | 3 min 29 sec</i><br>
<br>
<b><i><span style="text-decoration: underline"><span style="font-size: 18px">DOWNLOAD:</span></span></i></b><br>
<div class="bbCodeBlock bbCodeVfcHH HiddenContent">
<div class="attribution type">Hidden Content:</div>
<blockquote>You must reply before you can see the hidden data contained here.</blockquote>
</div></div><img src="https://i.imgur.com/PJMTrij.jpeg" class="bbCodeImage LbImage" alt="[​IMG]" data-url="https://i.imgur.com/PJMTrij.jpeg" style=""> <br>
<img src="https://i.imgur.com/pfx2Bnw.jpeg" class="bbCodeImage LbImage" alt="[​IMG]" data-url="https://i.imgur.com/pfx2Bnw.jpeg" style="">
<div class="messageTextEndMarker">&nbsp;</div>
</blockquote>
</article>]]></description>
                <author><![CDATA[ivan26XDead]]></author>
                </item>

                
                <item>
                <title><![CDATA[【Albums (lossy)】Dolby Atmos - NMIXX - Fe3O4: BREAK (EP) [E-AC3-JOC | 16bits/48kHz | DD+ w/DA| 768kbits]]]></title>
                <link><![CDATA[https://sharemania.us/threads/nmixx-fe3o4-break-ep-e-ac3-joc-16bits-48khz-dd-w-da-768kbits.247605/]]></link>
                <description><![CDATA[<article>
<blockquote class="messageText SelectQuoteContainer ugc baseHtml">
<img src="https://a5.mzstatic.com/us/r1000/0/Music126/v4/58/67/42/58674202-0971-b51e-df73-b5695cfadd6e/8809928950259_Cover.jpg" class="bbCodeImage LbImage" alt="[​IMG]" data-url="https://a5.mzstatic.com/us/r1000/0/Music126/v4/58/67/42/58674202-0971-b51e-df73-b5695cfadd6e/8809928950259_Cover.jpg" style=""> <br>
<div style="text-align: center"><img src="https://bendodson.s3-eu-west-1.amazonaws.com/apple-music/dolby-atmos.png" class="bbCodeImage LbImage" alt="[​IMG]" data-url="https://bendodson.s3-eu-west-1.amazonaws.com/apple-music/dolby-atmos.png" style="">​</div><img src="https://i.imgur.com/wk2m4vn.jpeg" class="bbCodeImage LbImage" alt="[​IMG]" data-url="https://i.imgur.com/wk2m4vn.jpeg" style=""> <br>
<div style="text-align: center"><span style="font-size: 18px"><b>Artist:</b> NMIXX<br>
<b>Album: </b>Fe3O4: BREAK<br>
<b>Year:</b> 2024<br>
<b>Source: <span style="color: rgb(255, 0, 0)"><span style="text-decoration: underline">Apple Music</span></span></b><br>
<b><b>Genre:</b> </b>K-Pop<br>
<b>Format</b>: .m4a Enhanced AC-3 with Joint Object Coding | Dolby Digital Plus with Dolby Atmos<br>
<b>Bitrate:</b> 768kb/s | 48kHz</span>​</div><img src="https://i.imgur.com/wk2m4vn.jpeg" class="bbCodeImage LbImage" alt="[​IMG]" data-url="https://i.imgur.com/wk2m4vn.jpeg" style=""> <br>
<div style="text-align: center"><b><span style="text-decoration: underline"><span style="font-size: 18px">TRACKLIST:</span></span></b><br>
01. DASH | 2 min 47 sec<br>
02. Soñar (Breaker) | 2 min 53 sec<br>
03. Run For Roses | 3 min 35 sec<br>
04. BOOM | 2 min 55 sec<br>
05. Passionfruit | 2 min 41 sec<br>
06. XOXO | 2 min 42 sec<br>
07. Break The Wall | 3 min 24 sec<br>
<br>
<b><i><span style="text-decoration: underline"><span style="font-size: 18px">DOWNLOAD:</span></span></i></b><br>
<div class="bbCodeBlock bbCodeVfcHH HiddenContent">
<div class="attribution type">Hidden Content:</div>
<blockquote>You must reply before you can see the hidden data contained here.</blockquote>
</div></div><img src="https://i.imgur.com/wk2m4vn.jpeg" class="bbCodeImage LbImage" alt="[​IMG]" data-url="https://i.imgur.com/wk2m4vn.jpeg" style=""><br>
<div style="text-align: center"><b><i><span style="text-decoration: underline">NMIXX in Dolby Atmos </span></i></b><br>
<a href="https://sharemania.us/threads/nmixx-entwurf-e-ac3-joc-16bits-48khz-768kbit.213438/" class="internalLink">ENTWURF | E</a>P | XeNonYT66<br>
<a href="https://sharemania.us/threads/nmixx-expérgo-e-ac3-joc-16bits-48khz-768kbit.218113/" class="internalLink">expérgo | EP</a> | XeNonYT66<br>
<a href="https://sharemania.us/threads/nmixx-a-midsummer-nmixx’s-dream-single-e-ac3-joc-16bits-48khz-dd-w-da-768kbits.247604/" class="internalLink">A Midsummer NMIXX’s Dream | EP</a> | ivan26XDead<br>
<a href="https://sharemania.us/threads/nmixx-fe3o4-break-ep-e-ac3-joc-16bits-48khz-dd-w-da-768kbits.247605/" class="internalLink">Fe3O4: BREAK | EP</a> | ivan26XDead​</div><img src="https://i.imgur.com/M4dwZ08.jpeg" class="bbCodeImage LbImage" alt="[​IMG]" data-url="https://i.imgur.com/M4dwZ08.jpeg" style="">
<div class="messageTextEndMarker">&nbsp;</div>
</blockquote>
</article>]]></description>
                <author><![CDATA[ivan26XDead]]></author>
                </item>

                
                <item>
                <title><![CDATA[【HD Live Performances】HDTV - Avril Lavigne - Live @ Pinkpop 2024 HDTV H264 1080i MP2-ilya2129]]></title>
                <link><![CDATA[https://sharemania.us/threads/avril-lavigne-live-pinkpop-2024-hdtv-h264-1080i-mp2-ilya2129.247608/]]></link>
                <description><![CDATA[<article>
<blockquote class="messageText SelectQuoteContainer ugc baseHtml">
<div style="text-align: center"><img src="https://i123.fastpic.org/big/2024/0622/e9/9b01a3e0688d10ff569e7812b3096ee9.png?r=1" class="bbCodeImage LbImage" alt="[​IMG]" data-url="https://i123.fastpic.org/big/2024/0622/e9/9b01a3e0688d10ff569e7812b3096ee9.png?r=1" style=""><br>
<br>
<a href="https://fastpic.org/view/123/2024/0622/_6c26e82af865b72e9584b122756afbc9.png.html" target="_blank" class="externalLink" rel="nofollow"><img src="https://i123.fastpic.org/thumb/2024/0622/c9/_6c26e82af865b72e9584b122756afbc9.jpeg" class="bbCodeImage LbImage" alt="[​IMG]" data-url="https://i123.fastpic.org/thumb/2024/0622/c9/_6c26e82af865b72e9584b122756afbc9.jpeg"></a> <a href="https://fastpic.org/view/123/2024/0622/_2094c85e3a6a30975e4945140d0f5fbf.png.html" target="_blank" class="externalLink" rel="nofollow"><img src="https://i123.fastpic.org/thumb/2024/0622/bf/_2094c85e3a6a30975e4945140d0f5fbf.jpeg" class="bbCodeImage LbImage" alt="[​IMG]" data-url="https://i123.fastpic.org/thumb/2024/0622/bf/_2094c85e3a6a30975e4945140d0f5fbf.jpeg"></a> <a href="https://fastpic.org/view/123/2024/0622/_27f43de67325aa59a50160a2c3dd8ecf.png.html" target="_blank" class="externalLink" rel="nofollow"><img src="https://i123.fastpic.org/thumb/2024/0622/cf/_27f43de67325aa59a50160a2c3dd8ecf.jpeg" class="bbCodeImage LbImage" alt="[​IMG]" data-url="https://i123.fastpic.org/thumb/2024/0622/cf/_27f43de67325aa59a50160a2c3dd8ecf.jpeg"></a> <a href="https://fastpic.org/view/123/2024/0622/_e298de2911df14d598652b135059a0fb.png.html" target="_blank" class="externalLink" rel="nofollow"><img src="https://i123.fastpic.org/thumb/2024/0622/fb/_e298de2911df14d598652b135059a0fb.jpeg" class="bbCodeImage LbImage" alt="[​IMG]" data-url="https://i123.fastpic.org/thumb/2024/0622/fb/_e298de2911df14d598652b135059a0fb.jpeg"></a> <a href="https://fastpic.org/view/123/2024/0622/_53beb47d3c309030e6429748c509aa55.png.html" target="_blank" class="externalLink" rel="nofollow"><img src="https://i123.fastpic.org/thumb/2024/0622/55/_53beb47d3c309030e6429748c509aa55.jpeg" class="bbCodeImage LbImage" alt="[​IMG]" data-url="https://i123.fastpic.org/thumb/2024/0622/55/_53beb47d3c309030e6429748c509aa55.jpeg"></a> <a href="https://fastpic.org/view/123/2024/0622/_963d364b96d501ca0a3c243a0da5168a.png.html" target="_blank" class="externalLink" rel="nofollow"><img src="https://i123.fastpic.org/thumb/2024/0622/8a/_963d364b96d501ca0a3c243a0da5168a.jpeg" class="bbCodeImage LbImage" alt="[​IMG]" data-url="https://i123.fastpic.org/thumb/2024/0622/8a/_963d364b96d501ca0a3c243a0da5168a.jpeg"></a> <a href="https://fastpic.org/view/123/2024/0622/_78efd1a8a830a6798832d3bcc4a0e1da.png.html" target="_blank" class="externalLink" rel="nofollow"><img src="https://i123.fastpic.org/thumb/2024/0622/da/_78efd1a8a830a6798832d3bcc4a0e1da.jpeg" class="bbCodeImage LbImage" alt="[​IMG]" data-url="https://i123.fastpic.org/thumb/2024/0622/da/_78efd1a8a830a6798832d3bcc4a0e1da.jpeg"></a><br>
<br>
​</div><br>
<div class="bbCodeBlock bbCodeCode">
<div class="type">Code:</div>
<pre>General
ID                                       : 1 (0x1)
Complete name                            : C:\Recordings\Avril Lavigne - Live @ Pinkpop 2024 HDTV H264 1080i MP2-ilya2129.ts
Format                                   : MPEG-TS
File size                                : 2.33 GiB
Duration                                 : 56 min 47 s
Overall bit rate mode                    : Variable
Overall bit rate                         : 5 863 kb/s
Frame rate                               : 25.000 FPS

Video
ID                                       : 302 (0x12E)
Menu ID                                  : 1 (0x1)
Format                                   : AVC
Format/Info                              : Advanced Video Codec
Format profile                           : High@L4
Format settings                          : CABAC / 4 Ref Frames
Format settings, CABAC                   : Yes
Format settings, Reference frames        : 4 frames
Codec ID                                 : 27
Duration                                 : 56 min 47 s
Bit rate                                 : 5 315 kb/s
Width                                    : 1 920 pixels
Height                                   : 1 080 pixels
Display aspect ratio                     : 16:9
Active Format Description                : Letterbox 16:9 image
Frame rate                               : 25.000 FPS
Standard                                 : Component
Color space                              : YUV
Chroma subsampling                       : 4:2:0
Bit depth                                : 8 bits
Scan type                                : MBAFF
Scan type, store method                  : Separated fields
Scan order                               : Top Field First
Bits/(Pixel*Frame)                       : 0.103
Stream size                              : 2.11 GiB (91%)
Color range                              : Limited
Color primaries                          : BT.709
Transfer characteristics                 : BT.709
Matrix coefficients                      : BT.709

Audio
ID                                       : 303 (0x12F)
Menu ID                                  : 1 (0x1)
Format                                   : MPEG Audio
Format version                           : Version 1
Format profile                           : Layer 2
Codec ID                                 : 3
Duration                                 : 56 min 47 s
Bit rate mode                            : Constant
Bit rate                                 : 256 kb/s
Channel(s)                               : 2 channels
Sampling rate                            : 48.0 kHz
Frame rate                               : 41.667 FPS (1152 SPF)
Compression mode                         : Lossy
Delay relative to video                  : -120 ms
Stream size                              : 104 MiB (4%)
Language                                 : Dutch

Text
ID                                       : 310 (0x136)-888
Menu ID                                  : 1 (0x1)
Format                                   : Teletext Subtitle
Language                                 : Dutch
Language, more info                      : For hearing impaired people

Other
ID                                       : 310 (0x136)-100
Menu ID                                  : 1 (0x1)
Format                                   : Teletext
Language                                 : Dutch


</pre>
</div><div style="text-align: center"><br>
<div class="bbCodeBlock bbCodeVfcHH HiddenContent">
<div class="attribution type">Hidden Content:</div>
<blockquote>You must reply before you can see the hidden data contained here.</blockquote>
</div></div>
<div class="messageTextEndMarker">&nbsp;</div>
</blockquote>
</article>]]></description>
                <author><![CDATA[ilya2129]]></author>
                </item>

                
                <item>
                <title><![CDATA[【HD Live Performances】HDTV - The Prodigy - Live @ Isle Of Wight 2024 HDTV H264 1080i DD5.1-ilya2129]]></title>
                <link><![CDATA[https://sharemania.us/threads/the-prodigy-live-isle-of-wight-2024-hdtv-h264-1080i-dd5-1-ilya2129.247606/]]></link>
                <description><![CDATA[<article>
<blockquote class="messageText SelectQuoteContainer ugc baseHtml">
<div style="text-align: center"><img src="https://i123.fastpic.org/big/2024/0622/e0/bad436517f8c24d4734ef8f62ee125e0.png?r=1" class="bbCodeImage LbImage" alt="[​IMG]" data-url="https://i123.fastpic.org/big/2024/0622/e0/bad436517f8c24d4734ef8f62ee125e0.png?r=1" style=""><br>
<br>
<a href="https://fastpic.org/view/123/2024/0622/_7c1865dd50286f7265ab3ec72c22b73a.png.html" target="_blank" class="externalLink" rel="nofollow"><img src="https://i123.fastpic.org/thumb/2024/0622/3a/_7c1865dd50286f7265ab3ec72c22b73a.jpeg" class="bbCodeImage LbImage" alt="[​IMG]" data-url="https://i123.fastpic.org/thumb/2024/0622/3a/_7c1865dd50286f7265ab3ec72c22b73a.jpeg"></a> <a href="https://fastpic.org/view/123/2024/0622/_aedafde4aa108affc2a75ba2b38cd4b2.png.html" target="_blank" class="externalLink" rel="nofollow"><img src="https://i123.fastpic.org/thumb/2024/0622/b2/_aedafde4aa108affc2a75ba2b38cd4b2.jpeg" class="bbCodeImage LbImage" alt="[​IMG]" data-url="https://i123.fastpic.org/thumb/2024/0622/b2/_aedafde4aa108affc2a75ba2b38cd4b2.jpeg"></a> <a href="https://fastpic.org/view/123/2024/0622/_f0cba86e6484de05c8aecf2a1cd00f81.png.html" target="_blank" class="externalLink" rel="nofollow"><img src="https://i123.fastpic.org/thumb/2024/0622/81/_f0cba86e6484de05c8aecf2a1cd00f81.jpeg" class="bbCodeImage LbImage" alt="[​IMG]" data-url="https://i123.fastpic.org/thumb/2024/0622/81/_f0cba86e6484de05c8aecf2a1cd00f81.jpeg"></a> <a href="https://fastpic.org/view/123/2024/0622/_e3101f754385cb629c8616e39450d3f2.png.html" target="_blank" class="externalLink" rel="nofollow"><img src="https://i123.fastpic.org/thumb/2024/0622/f2/_e3101f754385cb629c8616e39450d3f2.jpeg" class="bbCodeImage LbImage" alt="[​IMG]" data-url="https://i123.fastpic.org/thumb/2024/0622/f2/_e3101f754385cb629c8616e39450d3f2.jpeg"></a> <a href="https://fastpic.org/view/123/2024/0622/_96ddbe1b3fbd243ea41eb62bebf5b808.png.html" target="_blank" class="externalLink" rel="nofollow"><img src="https://i123.fastpic.org/thumb/2024/0622/08/_96ddbe1b3fbd243ea41eb62bebf5b808.jpeg" class="bbCodeImage LbImage" alt="[​IMG]" data-url="https://i123.fastpic.org/thumb/2024/0622/08/_96ddbe1b3fbd243ea41eb62bebf5b808.jpeg"></a> <a href="https://fastpic.org/view/123/2024/0622/_fda0d0091256995fd715ffdee5ba7617.png.html" target="_blank" class="externalLink" rel="nofollow"><img src="https://i123.fastpic.org/thumb/2024/0622/17/_fda0d0091256995fd715ffdee5ba7617.jpeg" class="bbCodeImage LbImage" alt="[​IMG]" data-url="https://i123.fastpic.org/thumb/2024/0622/17/_fda0d0091256995fd715ffdee5ba7617.jpeg"></a><br>
<br>
​</div><br>
<div class="bbCodeBlock bbCodeCode">
<div class="type">Code:</div>
<pre>General
ID                                       : 1 (0x1)
Complete name                            : C:\Recordings\The Prodigy - Live @ Isle Of Wight 2024 HDTV H264 1080i DD5.1-ilya2129.ts
Format                                   : MPEG-TS
File size                                : 1.68 GiB
Duration                                 : 41 min 1 s
Overall bit rate mode                    : Variable
Overall bit rate                         : 5 850 kb/s
Frame rate                               : 25.000 FPS

Video
ID                                       : 302 (0x12E)
Menu ID                                  : 1 (0x1)
Format                                   : AVC
Format/Info                              : Advanced Video Codec
Format profile                           : High@L4
Format settings                          : CABAC / 3 Ref Frames
Format settings, CABAC                   : Yes
Format settings, Reference frames        : 3 frames
Format settings, Slice count             : 2 slices per frame
Codec ID                                 : 27
Duration                                 : 41 min 1 s
Bit rate                                 : 5 044 kb/s
Width                                    : 1 920 pixels
Height                                   : 1 080 pixels
Display aspect ratio                     : 16:9
Frame rate                               : 25.000 FPS
Color space                              : YUV
Chroma subsampling                       : 4:2:0
Bit depth                                : 8 bits
Scan type                                : MBAFF
Scan type, store method                  : Separated fields
Scan order                               : Top Field First
Bits/(Pixel*Frame)                       : 0.097
Time code of first frame                 : 22:32:22
Stream size                              : 1.45 GiB (86%)
Color range                              : Limited
Color primaries                          : BT.709
Transfer characteristics                 : BT.709
Matrix coefficients                      : BT.709

Audio #1
ID                                       : 303 (0x12F)
Menu ID                                  : 1 (0x1)
Format                                   : MPEG Audio
Format version                           : Version 1
Format profile                           : Layer 2
Codec ID                                 : 3
Duration                                 : 41 min 1 s
Bit rate mode                            : Constant
Bit rate                                 : 128 kb/s
Channel(s)                               : 2 channels
Sampling rate                            : 48.0 kHz
Frame rate                               : 41.667 FPS (1152 SPF)
Compression mode                         : Lossy
Stream size                              : 37.6 MiB (2%)
Language                                 : nar

Audio #2
ID                                       : 304 (0x130)
Menu ID                                  : 1 (0x1)
Format                                   : AC-3
Format/Info                              : Audio Coding 3
Commercial name                          : Dolby Digital
Codec ID                                 : 6
Duration                                 : 41 min 1 s
Bit rate mode                            : Constant
Bit rate                                 : 384 kb/s
Channel(s)                               : 6 channels
Channel layout                           : L R C LFE Ls Rs
Sampling rate                            : 48.0 kHz
Frame rate                               : 31.250 FPS (1536 SPF)
Compression mode                         : Lossy
Stream size                              : 113 MiB (7%)
Language                                 : English
Service kind                             : Complete Main

Text
ID                                       : 310 (0x136)-888
Menu ID                                  : 1 (0x1)
Format                                   : Teletext Subtitle
Language                                 : English
</pre>
</div><div style="text-align: center"><br>
<div class="bbCodeBlock bbCodeVfcHH HiddenContent">
<div class="attribution type">Hidden Content:</div>
<blockquote>You must reply before you can see the hidden data contained here.</blockquote>
</div></div>
<div class="messageTextEndMarker">&nbsp;</div>
</blockquote>
</article>]]></description>
                <author><![CDATA[ilya2129]]></author>
                </item>

                
                <item>
                <title><![CDATA[【HD Live Performances】HDTV - Babymetal - Live @ Pinkpop 2024 HDTV H264 1080i MP2-ilya2129]]></title>
                <link><![CDATA[https://sharemania.us/threads/babymetal-live-pinkpop-2024-hdtv-h264-1080i-mp2-ilya2129.247607/]]></link>
                <description><![CDATA[<article>
<blockquote class="messageText SelectQuoteContainer ugc baseHtml">
<div style="text-align: center"><img src="https://i123.fastpic.org/big/2024/0622/e9/9b01a3e0688d10ff569e7812b3096ee9.png?r=1" class="bbCodeImage LbImage" alt="[​IMG]" data-url="https://i123.fastpic.org/big/2024/0622/e9/9b01a3e0688d10ff569e7812b3096ee9.png?r=1" style=""><br>
<br>
<a href="https://fastpic.org/view/123/2024/0622/_8dfac44492c78f3f1748d580c8d07bdf.png.html" target="_blank" class="externalLink" rel="nofollow"><img src="https://i123.fastpic.org/thumb/2024/0622/df/_8dfac44492c78f3f1748d580c8d07bdf.jpeg" class="bbCodeImage LbImage" alt="[​IMG]" data-url="https://i123.fastpic.org/thumb/2024/0622/df/_8dfac44492c78f3f1748d580c8d07bdf.jpeg"></a> <a href="https://fastpic.org/view/123/2024/0622/_a7ae8e6cd22e59319f1938835c2f7689.png.html" target="_blank" class="externalLink" rel="nofollow"><img src="https://i123.fastpic.org/thumb/2024/0622/89/_a7ae8e6cd22e59319f1938835c2f7689.jpeg" class="bbCodeImage LbImage" alt="[​IMG]" data-url="https://i123.fastpic.org/thumb/2024/0622/89/_a7ae8e6cd22e59319f1938835c2f7689.jpeg"></a> <a href="https://fastpic.org/view/123/2024/0622/_9a905c0a38be51fd7b5a1a9f01e1af96.png.html" target="_blank" class="externalLink" rel="nofollow"><img src="https://i123.fastpic.org/thumb/2024/0622/96/_9a905c0a38be51fd7b5a1a9f01e1af96.jpeg" class="bbCodeImage LbImage" alt="[​IMG]" data-url="https://i123.fastpic.org/thumb/2024/0622/96/_9a905c0a38be51fd7b5a1a9f01e1af96.jpeg"></a> <a href="https://fastpic.org/view/123/2024/0622/_76b7da9b598e125acc4f32d3542dabc0.png.html" target="_blank" class="externalLink" rel="nofollow"><img src="https://i123.fastpic.org/thumb/2024/0622/c0/_76b7da9b598e125acc4f32d3542dabc0.jpeg" class="bbCodeImage LbImage" alt="[​IMG]" data-url="https://i123.fastpic.org/thumb/2024/0622/c0/_76b7da9b598e125acc4f32d3542dabc0.jpeg"></a> <a href="https://fastpic.org/view/123/2024/0622/_c57d7b64dcc5afb226685ff272b6dc18.png.html" target="_blank" class="externalLink" rel="nofollow"><img src="https://i123.fastpic.org/thumb/2024/0622/18/_c57d7b64dcc5afb226685ff272b6dc18.jpeg" class="bbCodeImage LbImage" alt="[​IMG]" data-url="https://i123.fastpic.org/thumb/2024/0622/18/_c57d7b64dcc5afb226685ff272b6dc18.jpeg"></a> <a href="https://fastpic.org/view/123/2024/0622/_a9c53fe29f16d95dbdcddf11b94bf989.png.html" target="_blank" class="externalLink" rel="nofollow"><img src="https://i123.fastpic.org/thumb/2024/0622/89/_a9c53fe29f16d95dbdcddf11b94bf989.jpeg" class="bbCodeImage LbImage" alt="[​IMG]" data-url="https://i123.fastpic.org/thumb/2024/0622/89/_a9c53fe29f16d95dbdcddf11b94bf989.jpeg"></a><br>
<br>
​</div><br>
<div class="bbCodeBlock bbCodeCode">
<div class="type">Code:</div>
<pre>General
ID                                       : 1 (0x1)
Complete name                            : C:\Recordings\Babymetal - Live @ Pinkpop 2024 HDTV H264 1080i MP2-ilya2129.ts
Format                                   : MPEG-TS
File size                                : 2.38 GiB
Duration                                 : 55 min 13 s
Overall bit rate mode                    : Variable
Overall bit rate                         : 6 170 kb/s
Frame rate                               : 25.000 FPS

Video
ID                                       : 302 (0x12E)
Menu ID                                  : 1 (0x1)
Format                                   : AVC
Format/Info                              : Advanced Video Codec
Format profile                           : High@L4
Format settings                          : CABAC / 4 Ref Frames
Format settings, CABAC                   : Yes
Format settings, Reference frames        : 4 frames
Codec ID                                 : 27
Duration                                 : 55 min 12 s
Bit rate                                 : 5 606 kb/s
Width                                    : 1 920 pixels
Height                                   : 1 080 pixels
Display aspect ratio                     : 16:9
Active Format Description                : Letterbox 16:9 image
Frame rate                               : 25.000 FPS
Standard                                 : Component
Color space                              : YUV
Chroma subsampling                       : 4:2:0
Bit depth                                : 8 bits
Scan type                                : MBAFF
Scan type, store method                  : Interleaved fields
Scan order                               : Top Field First
Bits/(Pixel*Frame)                       : 0.108
Stream size                              : 2.16 GiB (91%)
Color range                              : Limited
Color primaries                          : BT.709
Transfer characteristics                 : BT.709
Matrix coefficients                      : BT.709

Audio
ID                                       : 303 (0x12F)
Menu ID                                  : 1 (0x1)
Format                                   : MPEG Audio
Format version                           : Version 1
Format profile                           : Layer 2
Codec ID                                 : 3
Duration                                 : 55 min 12 s
Bit rate mode                            : Constant
Bit rate                                 : 256 kb/s
Channel(s)                               : 2 channels
Sampling rate                            : 48.0 kHz
Frame rate                               : 41.667 FPS (1152 SPF)
Compression mode                         : Lossy
Delay relative to video                  : -160 ms
Stream size                              : 101 MiB (4%)
Language                                 : Dutch

Text
ID                                       : 310 (0x136)-888
Menu ID                                  : 1 (0x1)
Format                                   : Teletext Subtitle
Language                                 : Dutch
Language, more info                      : For hearing impaired people

Other
ID                                       : 310 (0x136)-100
Menu ID                                  : 1 (0x1)
Format                                   : Teletext
Language                                 : Dutch

</pre>
</div><div style="text-align: center"><br>
<div class="bbCodeBlock bbCodeVfcHH HiddenContent">
<div class="attribution type">Hidden Content:</div>
<blockquote>You must reply before you can see the hidden data contained here.</blockquote>
</div></div>
<div class="messageTextEndMarker">&nbsp;</div>
</blockquote>
</article>]]></description>
                <author><![CDATA[ilya2129]]></author>
                </item>

                </channel></rss>